<?xml version="1.0" encoding="utf-8"?>
<!-- Generator: Adobe Illustrator 26.0.3, SVG Export Plug-In . SVG Version: 6.00 Build 0)  -->
<svg version="1.0" id="Layer_1" xmlns="http://www.w3.org/2000/svg" xmlns:xlink="http://www.w3.org/1999/xlink" x="0px" y="0px"
	 viewBox="0 0 240 168.4" style="enable-background:new 0 0 240 168.4;" xml:space="preserve">
<style type="text/css">
	.st0{fill:#0166FF;}
</style>
<path class="st0" d="M27,60.5c3.9-0.6,7.5,2,8.1,5.9c0.6,3.9-2,7.5-5.9,8.1c-3.9,0.6-7.5-2-8.1-5.9c-0.1-0.5-0.1-1-0.1-1.5
	C21.2,63.8,23.7,61,27,60.5z"/>
<path class="st0" d="M43.6,60.5c3.9-0.6,7.5,2,8.1,5.9c0.6,3.9-2,7.5-5.9,8.1c-3.9,0.6-7.5-2-8.1-5.9c0-0.2-0.1-0.5-0.1-0.7
	C37.4,64.3,40,61.1,43.6,60.5z"/>
<path class="st0" d="M59.8,60.7c3.8-0.9,7.6,1.5,8.5,5.3c0.9,3.8-1.5,7.6-5.3,8.5c-3.8,0.9-7.6-1.5-8.5-5.3
	c-0.3-1.2-0.2-2.4,0.1-3.6C55.3,63.1,57.3,61.2,59.8,60.7z"/>
<path class="st0" d="M154.5,74h4.1c-1.2,1.5-2.5,3-3.8,4.6c-1.1,0-2.3,0-3.4,0L154.5,74L154.5,74z"/>
<path class="st0" d="M182.4,74c1.2-0.5,2.6,0,3.1,1.1c0.5,1.2,0,2.6-1.1,3.1c-0.8,0.4-1.7,0.3-2.4-0.2c-1-0.8-1.2-2.3-0.5-3.3
	C181.8,74.4,182.1,74.1,182.4,74z"/>
<path class="st0" d="M138,75.5c1.7-1.6,4.2-0.9,6.3-1V78c-0.9,0-1.8,0-2.8,0.1c-1.1,0.4-0.6,1.9-0.7,2.8h3.5v3.8h-3.4v12.3h-4V84.5
	h-2.7v-3.8h2.7C136.9,79,136.5,76.8,138,75.5L138,75.5z"/>
<path class="st0" d="M77,74.8h17.3v3.9h-6.6v18.1h-4.1V78.7H77V74.8z"/>
<path class="st0" d="M111,74.8h4v22h-4V74.8z"/>
<path class="st0" d="M43.1,77.3c3.8-0.9,7.6,1.4,8.6,5.2c0.9,3.8-1.4,7.6-5.2,8.6c-3.8,0.9-7.6-1.4-8.6-5.2c-0.5-2.1,0-4.2,1.2-5.9
	C40.1,78.6,41.5,77.7,43.1,77.3z"/>
<path class="st0" d="M151.6,80.5c2.5-0.4,5,0.2,6.9,1.8c3.5,3.4,3.7,9,0.3,12.5c0,0,0,0-0.1,0.1c-3.2,2.9-8,2.9-11.3,0.1
	c-3.5-3.4-3.5-9,0-12.5c0,0,0,0,0,0C148.7,81.5,150.1,80.8,151.6,80.5 M151.9,84.2c-3.5,1.1-4,6.4-1.2,8.4c1.6,1.2,3.8,1.1,5.3-0.3
	c1.7-1.8,1.9-4.5,0.5-6.6C155.5,84.3,153.6,83.7,151.9,84.2L151.9,84.2z"/>
<path class="st0" d="M167.6,82.4c2.4-2.5,6.4-2.6,8.9-0.2c0.3,0.3,0.6,0.7,0.9,1c0.8,1.2,1.1,2.7,1.1,4.1v9.5h-4v-9.2
	c0-0.9-0.3-1.7-0.8-2.4c-1.4-1.5-3.7-1.5-5.1-0.2c-0.1,0.1-0.3,0.3-0.4,0.4c-0.4,0.7-0.6,1.5-0.6,2.4v9h-4V80.7h3.6L167.6,82.4z"/>
<path class="st0" d="M193.3,80.8c4-1.5,8.4,0.6,9.9,4.5c0.1,0.4,0.3,0.8,0.3,1.2h-3.9c-0.3-0.7-0.8-1.4-1.4-1.9
	c-1.8-1.1-4.1-0.7-5.4,0.9c-1.4,1.9-1.4,4.5,0,6.3c1.3,1.7,3.8,2,5.5,0.8c0.6-0.5,1.1-1.2,1.3-2h3.9c-0.4,2.2-1.7,4.1-3.5,5.3
	c-3.6,2-8.2,1.1-10.7-2.3c-1.6-2.4-2-5.5-1-8.3C189.1,83.2,190.9,81.5,193.3,80.8L193.3,80.8z"/>
<path class="st0" d="M208.7,81.2c2.4-1.1,5.2-1,7.5,0.3c1.8,1.1,2.9,3,2.9,5.1v10.3h-3.3c-0.1-0.5-0.2-1.1-0.3-1.7
	c-2.4,2.3-6.1,2.6-8.8,0.7c-1.9-1.6-2.3-4.4-1-6.5c1-1.3,2.5-2.2,4.1-2.4c1.8-0.2,3.6-0.1,5.3-0.1c0-1-0.3-1.9-1-2.6
	c-1.3-1.1-3.2-0.9-4.2,0.3c-0.3,0.3-0.5,0.7-0.6,1h-3.9C205.6,83.7,206.8,82,208.7,81.2 M209.1,90.8c-0.6,0.9-0.4,2.1,0.4,2.7
	c0.1,0.1,0.3,0.2,0.5,0.3c1.6,0.6,3.5,0,4.5-1.4c0.4-0.8,0.6-1.6,0.5-2.5c-1.2,0-2.5,0-3.7,0C210.5,89.9,209.7,90.2,209.1,90.8
	L209.1,90.8z"/>
<path class="st0" d="M94.9,82.8c3-3.2,8.1-3.4,11.3-0.3c2,1.9,2.9,4.8,2.3,7.6h-12c0.2,1.2,0.9,2.3,1.8,3c1.9,1.3,4.5,0.9,5.9-1h4.1
	c-0.8,2.1-2.4,3.8-4.6,4.6c-2.9,1-6,0.4-8.3-1.5C91.9,91.8,91.7,86.3,94.9,82.8 M97.8,84.9c-0.6,0.7-1.1,1.5-1.3,2.4h8.2
	c-0.2-0.9-0.6-1.7-1.1-2.4C102.1,83.3,99.5,83.3,97.8,84.9C97.8,84.8,97.8,84.9,97.8,84.9L97.8,84.9z"/>
<path class="st0" d="M119.3,83.1c2.8-3.4,7.9-3.8,11.3-1c2.3,1.9,3.3,5,2.6,8h-12c0.2,1.1,0.8,2.1,1.7,2.9c1.8,1.4,4.5,1.1,5.9-0.7
	c0,0,0.1-0.1,0.1-0.1h4.1c-0.7,2.1-2.3,3.7-4.3,4.5c-2.9,1.1-6.2,0.6-8.6-1.4C116.6,91.9,116.3,86.7,119.3,83.1 M122.3,85.2
	c-0.5,0.6-0.8,1.4-1,2.1h8.2c-0.2-0.9-0.6-1.7-1.1-2.4c-1.6-1.6-4.2-1.7-5.9-0.1C122.4,85,122.4,85.1,122.3,85.2L122.3,85.2z"/>
<path class="st0" d="M181.4,80.7h4v16.1h-4V80.7z"/>
<path class="st0" d="M43.4,93.9c3.9-0.7,7.6,1.8,8.3,5.6c0.7,3.9-1.8,7.6-5.6,8.3c-3.9,0.7-7.6-1.8-8.3-5.6c0-0.2-0.1-0.4-0.1-0.7
	C37.3,97.9,39.8,94.6,43.4,93.9z"/>
</svg>
