<svg xmlns="http://www.w3.org/2000/svg" width="1199.985" height="176.536" viewBox="0 0 1199.985 176.536">
  <g id="Group_11469" data-name="Group 11469" transform="translate(-120 -3595.275)">
    <rect id="Rectangle_37" data-name="Rectangle 37" width="1199.985" height="138.987" rx="20" transform="translate(120 3632.825)" fill="#0d0c12"/>
    <g id="Group_312" data-name="Group 312" transform="translate(120 3595.275)">
      <path id="Star_1" data-name="Star 1" d="M78.542,0,76.771,35.73l31.771-12.812L87.136,50.73,120,60,87.136,69.271l21.406,27.812L76.771,84.271,78.542,120,60,90,41.459,120l1.771-35.73L11.459,97.083,32.865,69.271,0,60,32.865,50.73,11.459,22.918,43.23,35.73,41.459,0,60,30Z" transform="translate(27.022 21.614) rotate(3.809)" fill="#c3fffd"/>
      <path id="Ellipse_54" data-name="Ellipse 54" d="M110.289,0A58.683,58.683,0,0,1,0,40.142L42.206,24.78a13.769,13.769,0,1,0,25.877-9.419Z" transform="translate(0)" fill="#9494ea"/>
    </g>
  </g>
</svg>
