<svg xmlns="http://www.w3.org/2000/svg" width="30.459" height="24" viewBox="0 0 30.459 24">
  <g id="chat_3_1" data-name="chat (3) 1" transform="translate(-1243.87 -62.001)">
    <g id="Group">
      <g id="Group-2" data-name="Group">
        <path id="Vector" d="M30.459,3.221V11.8a3.227,3.227,0,0,1-2.707,3.18v3.56a.9.9,0,0,1-1.518.663l-4.516-4.182h-2.9v1.967a3.225,3.225,0,0,1-3.221,3.221H7.969L3.81,23.782A.9.9,0,0,1,2.318,23.1V20.084A3.227,3.227,0,0,1,0,16.991V10.309A3.225,3.225,0,0,1,3.222,7.087H8.791V3.221A3.225,3.225,0,0,1,12.012,0H27.238a3.225,3.225,0,0,1,3.221,3.221Zm-13.451,11.8h-5A3.225,3.225,0,0,1,8.791,11.8V8.895H3.221a1.416,1.416,0,0,0-1.414,1.414v6.682a1.416,1.416,0,0,0,1.414,1.414.9.9,0,0,1,.9.9V21.13l2.921-2.507a.9.9,0,0,1,.589-.218h7.959a1.416,1.416,0,0,0,1.414-1.414Zm11.644-11.8a1.416,1.416,0,0,0-1.414-1.414H12.012A1.416,1.416,0,0,0,10.6,3.221V11.8a1.416,1.416,0,0,0,1.414,1.414H22.073a.9.9,0,0,1,.614.241l3.258,3.017V14.12a.9.9,0,0,1,.9-.9h.389A1.416,1.416,0,0,0,28.652,11.8Z" transform="translate(1243.87 62.001)" fill="#fff"/>
      </g>
    </g>
    <g id="Group-3" data-name="Group">
      <g id="Group-4" data-name="Group">
        <path id="Vector-2" data-name="Vector" d="M12.3.9a.9.9,0,0,1-.9.9H.9A.9.9,0,0,1,.9,0H11.392A.9.9,0,0,1,12.3.9Z" transform="translate(1257.347 66.952)" fill="#fff"/>
      </g>
    </g>
    <g id="Group-5" data-name="Group">
      <g id="Group-6" data-name="Group">
        <path id="Vector-3" data-name="Vector" d="M12.3.9a.9.9,0,0,1-.9.9H.9A.9.9,0,0,1,.9,0H11.392A.9.9,0,0,1,12.3.9Z" transform="translate(1257.347 70.687)" fill="#fff"/>
      </g>
    </g>
  </g>
</svg>
