<svg id="Group_10931" data-name="Group 10931" xmlns="http://www.w3.org/2000/svg" width="23.269" height="23.493" viewBox="0 0 23.269 23.493">
  <path id="Vector" d="M4.085,8.216,4.1,8.107a5.366,5.366,0,0,1,10.624,0l.016.109a5.354,5.354,0,0,1-1.07,4.053,4.581,4.581,0,0,0-1.155,2.712v2.48H6.31v-2.48a4.581,4.581,0,0,0-1.155-2.712,5.354,5.354,0,0,1-1.07-4.053Z" transform="translate(2.222 1.929)" fill="none" stroke="#fff" stroke-width="2"/>
  <path id="Vector-2" data-name="Vector" d="M9.308,22.493h4.654M11.634,0V3.1M0,11.634H3.1m17.064,0h3.1M4.654,6.205,2.327,3.878M18.615,6.205l2.327-2.327" transform="translate(0 0)" fill="none" stroke="#fff" stroke-width="2"/>
</svg>
