<svg xmlns="http://www.w3.org/2000/svg" width="24.508" height="24.493" viewBox="0 0 24.508 24.493">
  <g id="Group_10933" data-name="Group 10933" transform="translate(-350.5 -483.5)">
    <path id="Vector" d="M16.431,3.213A3.215,3.215,0,1,1,13.215,0,3.216,3.216,0,0,1,16.431,3.213Z" transform="translate(357.577 484.5)" fill="none" stroke="#fff" stroke-linecap="square" stroke-width="2" fill-rule="evenodd"/>
    <path id="Vector-2" data-name="Vector" d="M16.431,13.207a3.215,3.215,0,1,1-3.215-3.213A3.216,3.216,0,0,1,16.431,13.207Z" transform="translate(357.577 490.573)" fill="none" stroke="#fff" stroke-linecap="square" stroke-width="2" fill-rule="evenodd"/>
    <path id="Vector-3" data-name="Vector" d="M6.431,8.21A3.215,3.215,0,1,1,3.215,5,3.216,3.216,0,0,1,6.431,8.21Z" transform="translate(351.5 487.537)" fill="none" stroke="#fff" stroke-linecap="square" stroke-width="2" fill-rule="evenodd"/>
    <path id="Vector-4" data-name="Vector" d="M4,9.127h6.431m4.019,5.627L10.431,9.12,14.45,3.5" transform="translate(353.931 486.627)" fill="none" stroke="#fff" stroke-linecap="square" stroke-width="2"/>
  </g>
</svg>
