<svg xmlns="http://www.w3.org/2000/svg" width="24.001" height="24.001" viewBox="0 0 24.001 24.001">
  <g id="Group_10930" data-name="Group 10930" transform="translate(1 1)">
    <path id="Vector" d="M3,7.857V1.571A1.572,1.572,0,0,1,4.571,0H14a1.572,1.572,0,0,1,1.571,1.571V7.857A6.286,6.286,0,1,1,3,7.857Z" transform="translate(1.714 0)" fill="none" stroke="#fff" stroke-width="2"/>
    <path id="Vector-2" data-name="Vector" d="M16.5,20.858H5.5m5.5,0V13M4.714,8.286H3.143A3.143,3.143,0,0,1,3.143,2H4.714M17.286,2h1.571a3.143,3.143,0,0,1,0,6.286H17.286" transform="translate(0 1.143)" fill="none" stroke="#fff" stroke-width="2"/>
  </g>
</svg>
