<svg xmlns="http://www.w3.org/2000/svg" width="511.958" height="40.097" viewBox="0 0 511.958 40.097">
  <g id="maruti-suzuki-arena-vector-logo" transform="translate(-25.6 -302.5)">
    <path id="Path_10069" data-name="Path 10069" d="M45.478,302.5a72.466,72.466,0,0,1-19.707,12.2l25.508,18.257-1.45.683-10.579-7c-3.412-2.3-11.944-.682-13.65,2.218L45.222,342.6a62.287,62.287,0,0,1,19.792-12.541L39.25,312.14l1.365-1.109L48.976,317c4.18,2.986,7.507,3.754,16.465-.682L45.478,302.5" fill="#fff" fill-rule="evenodd"/>
    <path id="Path_10070" data-name="Path 10070" d="M95.7,314.2h11.176l3.327,11.688h0L113.53,314.2h11.091v20.048h-7.166V319.916h-.085l-4.18,14.332h-5.972l-4.266-14.332h0v14.332H95.7V314.2" transform="translate(-10.296 -1.719)" fill="#fff"/>
    <path id="Path_10071" data-name="Path 10071" d="M144.265,320.257h0l-2.389,6.825h4.777l-2.389-6.825m-4.948-6.057h9.726l8.531,20.048h-8.446l-.853-2.3H140l-.853,2.3H130.7Z" transform="translate(-15.437 -1.719)" fill="#fff"/>
    <path id="Path_10072" data-name="Path 10072" d="M194.2,314.2h7.934v12.114c0,2.559,1.45,3.412,4.095,3.412,2.559,0,4.095-.853,4.095-3.412V314.2h7.934v12.456c0,6.4-3.839,8.275-12.029,8.275-8.1,0-12.029-1.962-12.029-8.275V314.2" transform="translate(-24.764 -1.719)" fill="#fff"/>
    <path id="Path_10073" data-name="Path 10073" d="M231.537,319.233H224.2V314.2h22.608v5.033h-7.337v15.015h-7.934V319.233" transform="translate(-29.17 -1.719)" fill="#fff"/>
    <rect id="Rectangle_2224" data-name="Rectangle 2224" width="7.934" height="20.048" transform="translate(219.258 312.482)" fill="#fff"/>
    <path id="Path_10074" data-name="Path 10074" d="M171.134,319.233h5.545c1.28,0,2.3.341,2.3,1.877,0,1.28-.682,1.877-2.218,1.877h-5.631v-3.754m18.086,15.015-6.74-6.228c5.545-.853,4.863-6.313,4.863-8.19a5.423,5.423,0,0,0-2.73-4.863,11.044,11.044,0,0,0-4.777-.768H163.2v20.048h7.934v-6.142H172.5l6.654,6.142Z" transform="translate(-20.211 -1.719)" fill="#fff"/>
    <path id="Path_10075" data-name="Path 10075" d="M291.116,325.6c-3.839-.6-5.46-2.815-5.46-5.631,0-5.2,5.119-6.569,11.6-6.569,8.958,0,12.626,2.3,12.882,6.569h-9.214a1.744,1.744,0,0,0-1.194-1.621,5.814,5.814,0,0,0-2.474-.427c-2.389,0-3.157.6-3.157,1.45,0,.6.256.938,1.024,1.024l9.47,1.365c4.01.6,6.484,2.474,6.484,5.8,0,4.863-4.01,7.166-12.882,7.166-6.057,0-12.711-.853-12.8-6.74h9.555a1.5,1.5,0,0,0,.853,1.45,6.965,6.965,0,0,0,2.73.427c2.474,0,3.157-.682,3.157-1.621,0-.6-.341-1.194-1.45-1.365l-9.128-1.28" transform="translate(-38.159 -1.601)" fill="#fff"/>
    <path id="Path_10076" data-name="Path 10076" d="M318,314.2h7.934v12.114c0,2.559,1.45,3.412,4.095,3.412,2.559,0,4.095-.853,4.095-3.412V314.2h7.934v12.456c0,6.4-3.839,8.275-12.029,8.275-8.1,0-12.029-1.962-12.029-8.275V314.2" transform="translate(-42.947 -1.719)" fill="#fff"/>
    <path id="Path_10077" data-name="Path 10077" d="M348.6,329.983l12.029-10.749H349.453V314.2h21.84v4.351l-11.688,10.664h11.432v5.033H348.6v-4.266" transform="translate(-47.442 -1.719)" fill="#fff"/>
    <path id="Path_10078" data-name="Path 10078" d="M377.7,314.2h7.934v12.114c0,2.559,1.45,3.412,4.095,3.412,2.559,0,4.095-.853,4.095-3.412V314.2h7.934v12.456c0,6.4-3.839,8.275-12.029,8.275-8.1,0-12.029-1.962-12.029-8.275V314.2" transform="translate(-51.716 -1.719)" fill="#fff"/>
    <rect id="Rectangle_2225" data-name="Rectangle 2225" width="7.934" height="20.048" transform="translate(381.095 312.482)" fill="#fff"/>
    <path id="Path_10079" data-name="Path 10079" d="M409.9,334.248h7.678l-.171-7.166,7.763,7.166h10.067l-11.005-10.237,11.6-9.811h-9.64l-8.617,6.91V314.2H409.9v20.048" transform="translate(-56.446 -1.719)" fill="#fff" fill-rule="evenodd"/>
    <path id="Path_10080" data-name="Path 10080" d="M540.33,331.86v-6.825H556.2v-2.389H540.33v-6.057h17.916V314.2H537.6v20.048h20.816V331.86H540.33" transform="translate(-75.202 -1.719)" fill="#fff"/>
    <path id="Path_10081" data-name="Path 10081" d="M608.415,314.2h-2.133L593.4,334.248h3.242l3.839-5.972h13.565l3.754,5.972h3.157L608.415,314.2m4.095,11.688H602.017l5.375-8.275Z" transform="translate(-83.398 -1.719)" fill="#fff"/>
    <path id="Path_10082" data-name="Path 10082" d="M490.015,314.2h-2.133L475,334.248h3.242l3.839-5.972h13.565l3.754,5.972h3.157L490.015,314.2m4.095,11.688H483.617l5.375-8.275Z" transform="translate(-66.008 -1.719)" fill="#fff"/>
    <path id="Path_10083" data-name="Path 10083" d="M585.4,314.2v16.295c-1.877-1.706-4.863-4.351-8.872-7.763-4.095-3.583-7.252-6.4-9.384-8.446l-.085-.085H564.5v20.048h2.73v-16.38l18.342,16.38h2.559V314.2H585.4" transform="translate(-79.153 -1.719)" fill="#fff"/>
    <path id="Path_10084" data-name="Path 10084" d="M525.648,325.276a5.634,5.634,0,0,0,1.28-.427c2.559-.938,3.924-2.559,3.924-4.777,0-3.924-3.327-5.972-9.9-5.972H508.5v20.048h2.73v-8.361h9.3a20.03,20.03,0,0,0,2.218-.085l5.289,8.446h3.157l-5.545-8.872m.171-2.559a12.4,12.4,0,0,1-4.607.768H511.23v-6.91h9.982c4.607,0,6.825,1.194,6.825,3.583,0,1.109-.768,1.962-2.218,2.559" transform="translate(-70.928 -1.704)" fill="#fff"/>
  </g>
</svg>
