<svg id="Layer_1" data-name="Layer 1" xmlns="http://www.w3.org/2000/svg" viewBox="0 0 728 170"><defs><style>.cls-1{fill:#0f2d52;}.cls-2{fill:#fff;}.cls-3{fill:#8dc63f;}</style></defs><path class="cls-1" d="M152.9,85A67.71,67.71,0,1,1,85.19,17.12,67.8,67.8,0,0,1,152.9,85"/><path class="cls-1" d="M111.29,106.08s0,0,0,0Z"/><polygon class="cls-1" points="126.86 115.69 126.86 115.69 126.86 115.69 126.86 115.69"/><path class="cls-2" d="M111.29,106.09Z"/><path class="cls-2" d="M126.86,115.69h0"/><polygon class="cls-2" points="126.1 116.53 126.1 116.54 126.1 116.53 126.1 116.53"/><polygon class="cls-2" points="126.86 115.69 126.86 115.69 126.86 115.69 126.86 115.69"/><path class="cls-2" d="M126.1,116.54h0"/><path class="cls-1" d="M85.2,9.3A75.71,75.71,0,1,0,160.7,85,75.69,75.69,0,0,0,85.2,9.3m0,156.4A80.6,80.6,0,0,1,4.7,85a80.42,80.42,0,1,1,111.82,74.36A79.73,79.73,0,0,1,85.2,165.7"/><path class="cls-1" d="M184.7,150.28V132.7a1.63,1.63,0,0,1,1.64-1.64h9.72a1.66,1.66,0,0,1,0,3.31H188v5.45h6.93a1.67,1.67,0,0,1,1.63,1.64,1.65,1.65,0,0,1-1.63,1.67H188v7.15a1.65,1.65,0,0,1-1.66,1.64,1.63,1.63,0,0,1-1.64-1.64"/><path class="cls-1" d="M216.64,141.19a7.73,7.73,0,0,0-2-5.21,6.39,6.39,0,0,0-4.7-2.12A6.47,6.47,0,0,0,205.1,136a7.58,7.58,0,0,0-2,5.21,7.46,7.46,0,0,0,2,5.19,6.49,6.49,0,0,0,4.81,2.15,6.42,6.42,0,0,0,4.7-2.15,7.6,7.6,0,0,0,2-5.19m.38-7.54a10.95,10.95,0,0,1,0,15.08,9.71,9.71,0,0,1-7.11,3.19,10,10,0,0,1-7.28-3.19,11.14,11.14,0,0,1,0-15.08,9.89,9.89,0,0,1,7.28-3.19,9.6,9.6,0,0,1,7.11,3.19"/><path class="cls-1" d="M233.17,137.47a3.07,3.07,0,0,0-3.07-3.1h-3.65v6.14h3.65a3.06,3.06,0,0,0,3.07-3m4.16,12a1.65,1.65,0,0,1-1,2.09,2.76,2.76,0,0,1-.66.08h0a2.1,2.1,0,0,1-1.15-.32,3,3,0,0,1-1-1.05,8.08,8.08,0,0,1-.62-3.57,2.46,2.46,0,0,0-.36-1.28,2.75,2.75,0,0,0-.89-.87,5.84,5.84,0,0,0-1.66-.71h-3.51v6.46a1.66,1.66,0,0,1-1.67,1.64,1.63,1.63,0,0,1-1.63-1.64V132.7a1.61,1.61,0,0,1,1.63-1.64h5.32a6.38,6.38,0,0,1,4.05,11.3,4.57,4.57,0,0,1,1,1.1,5.69,5.69,0,0,1,1,3.22,7.52,7.52,0,0,0,.12,1.76,1.61,1.61,0,0,1,1,1"/><path class="cls-1" d="M248.09,150.28V132.7a1.62,1.62,0,0,1,1.64-1.64h9.72a1.65,1.65,0,0,1,1.64,1.64,1.69,1.69,0,0,1-1.64,1.67h-8.06v5.45h6.93a1.67,1.67,0,0,1,1.63,1.64,1.65,1.65,0,0,1-1.63,1.67h-6.93v5.49h8.06a1.65,1.65,0,0,1,0,3.3h-9.63c-.06,0-.06,0-.06,0l0,0a1.63,1.63,0,0,1-1.64-1.64"/><path class="cls-1" d="M273.63,143.73l-2.41-6.41-2.4,6.41Zm1.22,3.28h-7.22l-1.46,3.87a1.66,1.66,0,0,1-1.55,1,1.73,1.73,0,0,1-.56-.09,1.68,1.68,0,0,1-1-2.14l6.57-17.56a1.71,1.71,0,0,1,3.15,0l6.57,17.56a1.68,1.68,0,0,1-1,2.14,1.62,1.62,0,0,1-.57.09,1.58,1.58,0,0,1-1.51-1Z"/><path class="cls-1" d="M291.56,137.47a3.07,3.07,0,0,0-3.06-3.1h-3.66v6.14h3.66a3.06,3.06,0,0,0,3.06-3m4.16,12a1.65,1.65,0,0,1-1,2.09,2.66,2.66,0,0,1-.65.08h0a2.13,2.13,0,0,1-1.16-.32,2.84,2.84,0,0,1-.95-1.05,7.92,7.92,0,0,1-.63-3.57,2.57,2.57,0,0,0-.35-1.28,2.78,2.78,0,0,0-.9-.87,5.72,5.72,0,0,0-1.66-.71h-3.51v6.46a1.65,1.65,0,0,1-1.66,1.64,1.63,1.63,0,0,1-1.64-1.64V132.7a1.61,1.61,0,0,1,1.64-1.64h5.32a6.38,6.38,0,0,1,4,11.3,4.22,4.22,0,0,1,1,1.1,5.61,5.61,0,0,1,1,3.22,7.52,7.52,0,0,0,.12,1.76,1.59,1.59,0,0,1,1,1"/><path class="cls-1" d="M299.05,150.28V132.7a1.63,1.63,0,0,1,1.64-1.64,1.65,1.65,0,0,1,1.66,1.64v15.92h8.06a1.65,1.65,0,0,1,0,3.3h-9.72a1.63,1.63,0,0,1-1.64-1.64"/><path class="cls-1" d="M324.92,133.86l-6.1,8.38v8a1.61,1.61,0,0,1-1.63,1.64,1.65,1.65,0,0,1-1.63-1.64v-8l-6-8.38a1.57,1.57,0,0,1,.33-2.27,1.59,1.59,0,0,1,2.26.36l5.08,7,5.08-7a1.64,1.64,0,0,1,2.29-.36,1.66,1.66,0,0,1,.36,2.27"/><path class="cls-1" d="M333.42,141.19a10.93,10.93,0,0,1,10.92-10.73,11.1,11.1,0,0,1,6.86,2.33,1.76,1.76,0,0,1,.3,2.38,1.73,1.73,0,0,1-2.38.33,7.41,7.41,0,0,0-4.78-1.64A7.92,7.92,0,0,0,339,136a7.39,7.39,0,0,0-2.17,5.19,7.25,7.25,0,0,0,2.17,5.19,7.88,7.88,0,0,0,5.36,2.15,7.47,7.47,0,0,0,4.78-1.64,1.8,1.8,0,0,1,2.38.32,1.77,1.77,0,0,1-.3,2.39,11.09,11.09,0,0,1-6.86,2.32,10.9,10.9,0,0,1-10.92-10.73"/><path class="cls-1" d="M355.78,150.28V132.7a1.62,1.62,0,0,1,1.64-1.64,1.63,1.63,0,0,1,1.66,1.64v7.15h7.7V132.7a1.62,1.62,0,0,1,1.64-1.64,1.63,1.63,0,0,1,1.66,1.64v17.58a1.63,1.63,0,0,1-1.66,1.64,1.62,1.62,0,0,1-1.64-1.64v-7.15h-7.7v7.15a1.63,1.63,0,0,1-1.66,1.64,1.62,1.62,0,0,1-1.64-1.64"/><path class="cls-1" d="M374.1,132.7a1.61,1.61,0,0,1,1.63-1.64,1.66,1.66,0,0,1,1.67,1.64v17.58a1.66,1.66,0,0,1-1.67,1.64,1.61,1.61,0,0,1-1.63-1.64Z"/><path class="cls-1" d="M381.47,150.28V132.7a1.63,1.63,0,0,1,1.64-1.64,1.65,1.65,0,0,1,1.66,1.64v15.92h8.06a1.65,1.65,0,0,1,0,3.3h-9.72a1.63,1.63,0,0,1-1.64-1.64"/><path class="cls-1" d="M400,148.62h1.85a7.13,7.13,0,0,0,0-14.25H400Zm-3.3,1.66V132.7a1.62,1.62,0,0,1,1.64-1.64h3.51a10.43,10.43,0,0,1,0,20.86h-3.51a1.63,1.63,0,0,1-1.64-1.64"/><path class="cls-1" d="M415.13,150.28V132.7a1.61,1.61,0,0,1,1.63-1.64,1.64,1.64,0,0,1,1.67,1.64v7.15h7.7V132.7a1.61,1.61,0,0,1,1.63-1.64,1.64,1.64,0,0,1,1.67,1.64v17.58a1.64,1.64,0,0,1-1.67,1.64,1.61,1.61,0,0,1-1.63-1.64v-7.15h-7.7v7.15a1.64,1.64,0,0,1-1.67,1.64,1.61,1.61,0,0,1-1.63-1.64"/><path class="cls-1" d="M449.85,141.19a7.72,7.72,0,0,0-2-5.21,6.4,6.4,0,0,0-4.69-2.12,6.47,6.47,0,0,0-4.82,2.12,7.58,7.58,0,0,0-2,5.21,7.46,7.46,0,0,0,2,5.19,6.5,6.5,0,0,0,4.82,2.15,6.44,6.44,0,0,0,4.69-2.15,7.59,7.59,0,0,0,2-5.19m.39-7.54a11,11,0,0,1,0,15.08,9.71,9.71,0,0,1-7.1,3.19,10,10,0,0,1-7.29-3.19,11.14,11.14,0,0,1,0-15.08,9.91,9.91,0,0,1,7.29-3.19,9.6,9.6,0,0,1,7.1,3.19"/><path class="cls-1" d="M473.34,141.19a7.72,7.72,0,0,0-2-5.21,6.39,6.39,0,0,0-9.51,0,7.58,7.58,0,0,0-2,5.21,7.46,7.46,0,0,0,2,5.19,6.33,6.33,0,0,0,9.51,0,7.59,7.59,0,0,0,2-5.19m.39-7.54a11,11,0,0,1,0,15.08,9.71,9.71,0,0,1-7.11,3.19,10,10,0,0,1-7.28-3.19,11.14,11.14,0,0,1,0-15.08,9.89,9.89,0,0,1,7.28-3.19,9.6,9.6,0,0,1,7.11,3.19"/><path class="cls-1" d="M483.51,148.62h1.85a7.13,7.13,0,0,0,0-14.25h-1.85Zm-3.3,1.66V132.7a1.62,1.62,0,0,1,1.64-1.64h3.51a10.43,10.43,0,0,1,0,20.86h-3.51a1.63,1.63,0,0,1-1.64-1.64"/><path class="cls-1" d="M510.83,148.62h1.85a7.13,7.13,0,0,0,0-14.25h-1.85Zm-3.29,1.66V132.7a1.61,1.61,0,0,1,1.63-1.64h3.51a10.43,10.43,0,0,1,0,20.86h-3.51a1.63,1.63,0,0,1-1.63-1.64"/><path class="cls-1" d="M525.94,150.28V132.7a1.62,1.62,0,0,1,1.64-1.64h9.72a1.65,1.65,0,0,1,1.63,1.64,1.68,1.68,0,0,1-1.63,1.67h-8.06v5.45h6.93a1.67,1.67,0,0,1,1.63,1.64,1.65,1.65,0,0,1-1.63,1.67h-6.93v5.49h8.06a1.65,1.65,0,0,1,0,3.3h-9.63c-.06,0-.06,0-.06,0l0,0a1.63,1.63,0,0,1-1.64-1.64"/><path class="cls-1" d="M548.86,151.62l-.2-.14s0,0,0-.09a.8.8,0,0,1-.15-.18,0,0,0,0,1,0,0,1.05,1.05,0,0,0-.15-.24L541,133.53a1.58,1.58,0,0,1,.9-2.11,1.6,1.6,0,0,1,2.11.86l5.8,13.8,5.79-13.8a1.64,1.64,0,0,1,2.14-.86,1.62,1.62,0,0,1,.89,2.11l-7.34,17.41a.9.9,0,0,1-.12.24s0,0,0,0-.12.12-.15.18l0,.09a2.2,2.2,0,0,1-.18.14l-.06,0a1.7,1.7,0,0,1-.24.14s0,0-.06,0a.71.71,0,0,0-.24.06h-.06a1.06,1.06,0,0,1-.29,0,1,1,0,0,1-.3,0h-.06a.71.71,0,0,0-.24-.06,0,0,0,0,0,0,0h0l-.27-.18Z"/><path class="cls-1" d="M562,150.28V132.7a1.62,1.62,0,0,1,1.64-1.64h9.72A1.65,1.65,0,0,1,575,132.7a1.69,1.69,0,0,1-1.64,1.67H565.3v5.45h6.93a1.68,1.68,0,0,1,1.64,1.64,1.66,1.66,0,0,1-1.64,1.67H565.3v5.49h8.06a1.65,1.65,0,0,1,0,3.3h-9.63c-.06,0-.06,0-.06,0l0,0a1.63,1.63,0,0,1-1.64-1.64"/><path class="cls-1" d="M578.15,150.28V132.7a1.63,1.63,0,0,1,1.63-1.64,1.65,1.65,0,0,1,1.67,1.64v15.92h8.06a1.65,1.65,0,0,1,0,3.3h-9.73a1.63,1.63,0,0,1-1.63-1.64"/><path class="cls-1" d="M608.24,141.19a7.77,7.77,0,0,0-2-5.21,6.4,6.4,0,0,0-9.52,0,7.58,7.58,0,0,0-2,5.21,7.46,7.46,0,0,0,2,5.19,6.34,6.34,0,0,0,9.52,0,7.64,7.64,0,0,0,2-5.19m.38-7.54a10.95,10.95,0,0,1,0,15.08,9.71,9.71,0,0,1-7.1,3.19,10,10,0,0,1-7.28-3.19,11.11,11.11,0,0,1,0-15.08,9.89,9.89,0,0,1,7.28-3.19,9.6,9.6,0,0,1,7.1,3.19"/><path class="cls-1" d="M618,140.51h3.66a3.07,3.07,0,1,0,0-6.14H618Zm3.66,3.31H618v6.46a1.65,1.65,0,0,1-3.3,0V132.7a1.63,1.63,0,0,1,1.64-1.64h5.32a6.38,6.38,0,1,1,0,12.76"/><path class="cls-1" d="M648.44,132.7v17.58a1.68,1.68,0,0,1-1.67,1.64,1.63,1.63,0,0,1-1.64-1.64V137.74l-4.28,6a1.62,1.62,0,0,1-1.33.68h-.06a1.69,1.69,0,0,1-1.37-.68l-4.25-6v12.54a1.65,1.65,0,0,1-3.3,0V132.7a1.65,1.65,0,0,1,1.63-1.64h.09a1.62,1.62,0,0,1,1.31.68l5.92,8.23,5.91-8.23a1.65,1.65,0,0,1,1.34-.68h0a1.7,1.7,0,0,1,1.67,1.64"/><path class="cls-1" d="M652.66,150.28V132.7a1.61,1.61,0,0,1,1.63-1.64H664a1.65,1.65,0,0,1,1.63,1.64,1.68,1.68,0,0,1-1.63,1.67H656v5.45h6.93a1.67,1.67,0,0,1,1.63,1.64,1.65,1.65,0,0,1-1.63,1.67H656v5.49H664a1.65,1.65,0,0,1,0,3.3h-9.64c-.06,0-.06,0-.06,0l0,0a1.63,1.63,0,0,1-1.63-1.64"/><path class="cls-1" d="M672.07,150.28a1.62,1.62,0,1,1-3.24,0V132.94a1.59,1.59,0,0,1,.66-1.37,1.64,1.64,0,0,1,2.26.35l9.6,13.33V133a1.62,1.62,0,0,1,1.61-1.61,1.64,1.64,0,0,1,1.63,1.61v17.31a1.65,1.65,0,0,1-1.63,1.64,1.6,1.6,0,0,1-1.22-.59.8.8,0,0,1-.15-.18l-9.52-13.24Z"/><path class="cls-1" d="M702.67,134.37h-4.73v15.92a1.61,1.61,0,0,1-1.63,1.63,1.63,1.63,0,0,1-1.64-1.63V134.37H690a1.66,1.66,0,0,1-1.63-1.67,1.61,1.61,0,0,1,1.63-1.64h12.7a1.63,1.63,0,0,1,1.63,1.64,1.68,1.68,0,0,1-1.63,1.67"/><path class="cls-1" d="M197.43,21.39H192.7V37.3A1.62,1.62,0,0,1,191.07,39a1.64,1.64,0,0,1-1.64-1.65V21.39h-4.7a1.66,1.66,0,0,1-1.63-1.67,1.61,1.61,0,0,1,1.63-1.64h12.7a1.63,1.63,0,0,1,1.63,1.64,1.68,1.68,0,0,1-1.63,1.67"/><path class="cls-1" d="M202.48,37.3V19.72a1.62,1.62,0,0,1,1.64-1.64,1.63,1.63,0,0,1,1.66,1.64v7.15h7.7V19.72a1.62,1.62,0,0,1,1.64-1.64,1.63,1.63,0,0,1,1.66,1.64V37.3A1.64,1.64,0,0,1,215.12,39a1.62,1.62,0,0,1-1.64-1.65V30.15h-7.7V37.3A1.64,1.64,0,0,1,204.12,39a1.62,1.62,0,0,1-1.64-1.65"/><path class="cls-1" d="M222.07,37.3V19.72a1.62,1.62,0,0,1,1.64-1.64h9.72a1.65,1.65,0,0,1,1.64,1.64,1.69,1.69,0,0,1-1.64,1.67h-8.05v5.45h6.92a1.66,1.66,0,0,1,0,3.31h-6.92v5.49h8.05a1.66,1.66,0,0,1,0,3.31H223.8c-.06,0-.06,0-.06,0l0,0a1.64,1.64,0,0,1-1.64-1.65"/><path class="cls-1" d="M185.61,85.06A21.34,21.34,0,0,1,207.19,63.9a21.6,21.6,0,0,1,13.33,4.57,3.34,3.34,0,1,1-4.1,5.28,15.1,15.1,0,0,0-9.23-3.17,14.5,14.5,0,0,0-10.53,4.28,13.93,13.93,0,0,0,0,20.28,14.5,14.5,0,0,0,10.53,4.28,16.09,16.09,0,0,0,8-2.23v-8h-8.36a3.36,3.36,0,0,1-3.33-3.34,3.28,3.28,0,0,1,3.33-3.28h11.63a3.3,3.3,0,0,1,3.39,3.28v13a5.66,5.66,0,0,1-.17,1c-.06.12-.06.18-.12.29v.06a2.82,2.82,0,0,1-1.11,1.41,21.54,21.54,0,0,1-13.27,4.57c-11.87,0-21.58-9.32-21.58-21"/><path class="cls-1" d="M261.27,85a15.2,15.2,0,0,0-4-10.26,12.57,12.57,0,0,0-9.24-4.16,12.71,12.71,0,0,0-9.47,4.16,15,15,0,0,0-4,10.26,14.69,14.69,0,0,0,4,10.2,12.77,12.77,0,0,0,9.47,4.22,12.64,12.64,0,0,0,9.24-4.22,14.93,14.93,0,0,0,4-10.2M262,70.17a21.59,21.59,0,0,1,0,29.66,19.14,19.14,0,0,1-14,6.27,19.71,19.71,0,0,1-14.32-6.27,21.89,21.89,0,0,1,0-29.66,19.48,19.48,0,0,1,14.32-6.27,18.92,18.92,0,0,1,14,6.27"/><path class="cls-1" d="M281.26,99.6h3.63a14,14,0,0,0,0-28h-3.63Zm-6.49,3.28V68.29A3.18,3.18,0,0,1,278,65.07h6.9a20.52,20.52,0,0,1,0,41H278a3.21,3.21,0,0,1-3.22-3.22"/><path class="cls-1" d="M318.62,99.6h3.63a14,14,0,0,0,0-28h-3.63Zm-6.49,3.28V68.29a3.18,3.18,0,0,1,3.22-3.22h6.9a20.52,20.52,0,0,1,0,41h-6.9a3.21,3.21,0,0,1-3.22-3.22"/><path class="cls-1" d="M366,90l-4.73-12.6L356.51,90Zm2.4,6.45H354.17l-2.87,7.62a3.27,3.27,0,0,1-3,2,3.63,3.63,0,0,1-1.11-.17,3.34,3.34,0,0,1-1.93-4.22l12.92-34.53a3.28,3.28,0,0,1,3.11-2.05,3.2,3.2,0,0,1,3.09,2.05l12.92,34.53a3.19,3.19,0,0,1-3,4.39,3.15,3.15,0,0,1-3-2Z"/><path class="cls-1" d="M402.29,77.67a6,6,0,0,0-6-6.09h-7.19V83.65h7.19a6,6,0,0,0,6-6m8.18,23.57a3.24,3.24,0,0,1-2.05,4.1,5,5,0,0,1-1.28.18h-.06a4.22,4.22,0,0,1-2.28-.65,5.78,5.78,0,0,1-1.87-2.05,15.76,15.76,0,0,1-1.23-7,5,5,0,0,0-.7-2.53,5.52,5.52,0,0,0-1.76-1.7,11,11,0,0,0-3.27-1.4h-6.9v12.72a3.25,3.25,0,0,1-3.27,3.22,3.21,3.21,0,0,1-3.22-3.22V68.29a3.18,3.18,0,0,1,3.22-3.22h10.46a12.54,12.54,0,0,1,7.95,22.22,8.88,8.88,0,0,1,2.05,2.17,11.1,11.1,0,0,1,1.93,6.33,15.14,15.14,0,0,0,.23,3.45,3.16,3.16,0,0,1,2.05,2"/><path class="cls-1" d="M423.51,99.6h3.62a14,14,0,0,0,0-28h-3.62ZM417,102.88V68.29a3.17,3.17,0,0,1,3.21-3.22h6.9a20.52,20.52,0,0,1,0,41h-6.9a3.2,3.2,0,0,1-3.21-3.22"/><path class="cls-1" d="M469.46,95.9a3.06,3.06,0,0,1,4.27-.41c2.57,2.11,7,4.57,11.16,4.52a12.63,12.63,0,0,0,7.31-2.17,5.28,5.28,0,0,0,2.52-4.22,3.39,3.39,0,0,0-.53-1.88A5.57,5.57,0,0,0,492.44,90a23.38,23.38,0,0,0-8-2.75h-.12a31.4,31.4,0,0,1-7.54-2.29,12.59,12.59,0,0,1-5.44-4.57A9.09,9.09,0,0,1,470,75.56,10.82,10.82,0,0,1,474.67,67a17.24,17.24,0,0,1,10.11-3.1c5.61,0,9.76,2.75,12.74,4.69a3,3,0,0,1,.82,4.16,2.94,2.94,0,0,1-4.15.88c-3-2-5.84-3.75-9.41-3.75a11.18,11.18,0,0,0-6.55,2A4.65,4.65,0,0,0,476,75.56a2.83,2.83,0,0,0,.41,1.64A5.64,5.64,0,0,0,478,78.73a20.27,20.27,0,0,0,7.31,2.58h.11a34.28,34.28,0,0,1,8.07,2.46,13.72,13.72,0,0,1,5.85,4.86,9.61,9.61,0,0,1,1.4,5,11.35,11.35,0,0,1-5,9.08A18.23,18.23,0,0,1,484.89,106c-6.31-.06-11.63-3.22-15-5.86a3.13,3.13,0,0,1-.47-4.28"/><path class="cls-1" d="M505.36,85a21.49,21.49,0,0,1,21.46-21.1,21.83,21.83,0,0,1,13.5,4.57,3.48,3.48,0,0,1,.59,4.69,3.42,3.42,0,0,1-4.68.64,14.54,14.54,0,0,0-9.41-3.22,15.46,15.46,0,0,0-10.53,4.22A14.48,14.48,0,0,0,512,85a14.29,14.29,0,0,0,4.27,10.2,15.46,15.46,0,0,0,10.53,4.22,14.66,14.66,0,0,0,9.41-3.22,3.54,3.54,0,0,1,4.68.64,3.47,3.47,0,0,1-.59,4.69,21.83,21.83,0,0,1-13.5,4.57A21.41,21.41,0,0,1,505.36,85"/><path class="cls-1" d="M549.33,102.88V68.29a3.17,3.17,0,0,1,3.21-3.22,3.22,3.22,0,0,1,3.27,3.22V82.36H571V68.29a3.17,3.17,0,0,1,3.21-3.22,3.23,3.23,0,0,1,3.28,3.22v34.59a3.22,3.22,0,0,1-3.28,3.22,3.17,3.17,0,0,1-3.21-3.22V88.81H555.81v14.07a3.22,3.22,0,0,1-3.27,3.22,3.17,3.17,0,0,1-3.21-3.22"/><path class="cls-1" d="M617.61,85a15.24,15.24,0,0,0-4-10.26,12.6,12.6,0,0,0-18.71,0A14.91,14.91,0,0,0,591,85a14.66,14.66,0,0,0,4,10.2,12.48,12.48,0,0,0,18.71,0,15,15,0,0,0,4-10.2m.76-14.83a21.56,21.56,0,0,1,0,29.66,19.12,19.12,0,0,1-14,6.27,19.73,19.73,0,0,1-14.33-6.27,21.91,21.91,0,0,1,0-29.66A19.51,19.51,0,0,1,604.4,63.9a18.9,18.9,0,0,1,14,6.27"/><path class="cls-1" d="M663.8,85a15.2,15.2,0,0,0-4-10.26,12.57,12.57,0,0,0-9.23-4.16,12.7,12.7,0,0,0-9.47,4.16,14.91,14.91,0,0,0-4,10.26,14.66,14.66,0,0,0,4,10.2,12.47,12.47,0,0,0,18.7,0,14.93,14.93,0,0,0,4-10.2m.76-14.83a21.59,21.59,0,0,1,0,29.66,19.12,19.12,0,0,1-14,6.27,19.73,19.73,0,0,1-14.33-6.27,21.89,21.89,0,0,1,0-29.66,19.51,19.51,0,0,1,14.33-6.27,18.9,18.9,0,0,1,14,6.27"/><path class="cls-1" d="M678.77,102.88V68.29A3.21,3.21,0,0,1,682,65.07a3.26,3.26,0,0,1,3.28,3.22V99.6H701.1a3.25,3.25,0,0,1,0,6.5H682a3.2,3.2,0,0,1-3.21-3.22"/><rect class="cls-1" x="183.1" y="48.98" width="521.15" height="4.88"/><rect class="cls-1" x="183.1" y="116.05" width="521.15" height="4.88"/><path class="cls-3" d="M111.29,106.08s0,0,0,0Z"/><path class="cls-2" d="M145.32,96.68a7.33,7.33,0,0,0-1.51-2.76,13.9,13.9,0,0,0-4.07-3.07l-.49-.25-.14-.08L139,90.4l-.37-.34-1.51-1.42-3-2.85L128,80.1l-6.16-5.69L115.46,69c-2.08-1.79-4.14-3.62-6.06-5.52a26.6,26.6,0,0,1-2.64-2.86,5.47,5.47,0,0,1-.4-.61s0-.08-.07-.16-.05-.15-.08-.21l-.18-.53c-.26-.69-.55-1.38-.87-2.05A19.88,19.88,0,0,0,92,46.68a20.47,20.47,0,0,1,10.78,11.43q.33.91.57,1.86l.11.47.07.3a3.15,3.15,0,0,0,.1.32,7.44,7.44,0,0,0,.6,1.23,29.4,29.4,0,0,0,2.65,3.56C108.76,68,110.73,70,112.72,72s4.06,3.91,6,5.77l2.91,2.92,3,2.94,6,5.81,3,2.89,1.52,1.44.39.37.21.19a4.07,4.07,0,0,0,.45.37l.17.11.08,0,.11.07.16.08.25.13.43.22A8.93,8.93,0,0,1,140,97.2a2.49,2.49,0,0,1,.51.84,1.32,1.32,0,0,1,0,.74,3.61,3.61,0,0,1-.34.8l-.24.38c-.17.27-.39.65-.59,1s-.37.69-.55,1a20.25,20.25,0,0,0-1.55,4.45c-.17.76-.29,1.54-.39,2.26l-.12,1v.06l-.79.47c-.57.34-1.16.67-1.76,1a55.14,55.14,0,0,1-7.22,3.37,10.52,10.52,0,0,1-1.65.44c-.21,0-.42,0-.26.06l.1,0-.06,0-.12-.05c-.08,0,0,0,0,0a2,2,0,0,1-.2-.14,13.54,13.54,0,0,1-2.27-2.85c-.39-.58-.78-1.17-1.23-1.78a8.71,8.71,0,0,0-.76-.94,4.4,4.4,0,0,0-1.21-1,3.27,3.27,0,0,0-.53-.19l-.31-.05h-.13l-.49,0-1-.1-2.05-.23c-2.73-.33-5.46-.77-8.16-1.31-1.35-.28-2.69-.61-4-1a12.57,12.57,0,0,1-3.75-1.69,11.87,11.87,0,0,0,3.5,2.32,37.67,37.67,0,0,0,3.91,1.59,82.22,82.22,0,0,0,8.11,2.31l2.06.46,1,.21.54.09.14,0H118a4.72,4.72,0,0,1,.34.4c.15.21.32.47.48.74.32.55.63,1.15,1,1.76s.67,1.26,1.07,1.91a9.89,9.89,0,0,0,1.53,2,4.19,4.19,0,0,0,.62.49,3.49,3.49,0,0,0,.41.25l.11.06.06,0,.15.07.07,0a4.39,4.39,0,0,0,1.8.22,13.54,13.54,0,0,0,2.43-.44,51.87,51.87,0,0,0,8.1-3.11c.65-.31,1.29-.62,1.94-1l1-.52.54-.31a4.38,4.38,0,0,0,.42-.3,2.17,2.17,0,0,0,.37-.35,2.67,2.67,0,0,0,.33-.45,4,4,0,0,0,.44-1.11c.07-.27.1-.48.14-.68l.17-1.06c.11-.65.23-1.25.39-1.84a15.5,15.5,0,0,1,1.3-3.35c.14-.27.28-.54.44-.8s.28-.47.49-.78l.32-.5c.12-.2.24-.4.35-.62a7.44,7.44,0,0,0,.56-1.44A6.35,6.35,0,0,0,145.32,96.68Zm-18.46,19Zm10.25-6.18Zm0,0,0,0Z"/><polygon class="cls-2" points="126.86 115.69 126.86 115.69 126.86 115.69 126.86 115.69"/><path class="cls-2" d="M102.4,97.9a56,56,0,0,1-8.54,2.38,18.18,18.18,0,0,1-8-.11A13.62,13.62,0,0,1,79.36,96a47,47,0,0,1-5-7.2,18.45,18.45,0,0,0,2.65,9,14.13,14.13,0,0,0,3.31,3.74,13,13,0,0,0,4.59,2.33,15.86,15.86,0,0,0,9.81-.7A19.77,19.77,0,0,0,102.4,97.9Z"/><path class="cls-2" d="M77.38,116.13c-.74-1.71-1.46-3.34-2.11-5-.16-.4-.33-.83-.47-1.22s-.28-.75-.39-1.13a15.59,15.59,0,0,1-.5-2.35A19.33,19.33,0,0,1,75.62,96.2a13.75,13.75,0,0,0-5.69,10.31A14.2,14.2,0,0,0,70,109.7a14,14,0,0,0,.29,1.57c.13.5.25,1,.39,1.44a51.39,51.39,0,0,0,2,5.4c1.47,3.43,2.92,6.58,4,10s2,6.93,3.1,10.64a29.7,29.7,0,0,0,.8-11.51A39.9,39.9,0,0,0,77.38,116.13Z"/><path class="cls-2" d="M75.28,144.78a60.6,60.6,0,0,0-1-6.43A63.43,63.43,0,0,0,72.61,132a58.15,58.15,0,0,0-13.14-22.82,50.38,50.38,0,0,0-4.9-4.56c-.9-.73-1.66-1.34-2.42-2s-1.5-1.33-2.21-2a36,36,0,0,1-7-9.56,27.78,27.78,0,0,1-3-11.5,26.09,26.09,0,0,1,2.56-12.08A21.53,21.53,0,0,0,37.09,79.4a27.32,27.32,0,0,0,1.79,13.42,34.49,34.49,0,0,0,7.49,11.34c.79.81,1.62,1.58,2.47,2.33s1.78,1.45,2.54,2.06a56.51,56.51,0,0,1,4.51,4.1,63.69,63.69,0,0,1,13.33,20.58c.77,1.93,1.54,3.88,2.18,5.88s1.21,4,1.75,6c.56,2.28,1,4.57,1.46,6.89l1.1.16v-1A63.7,63.7,0,0,0,75.28,144.78Z"/><path class="cls-2" d="M59.2,97.05c-1.17-1.29-2.4-2.48-3.5-3.66a25.07,25.07,0,0,1-2.9-3.59,20.37,20.37,0,0,1-2-4A22.13,22.13,0,0,1,49.15,77a18.24,18.24,0,0,1,2.47-8.46,30,30,0,0,1,6-7.22c1.19-1.07,2.46-2.1,3.77-3.09s2.7-1.88,4.1-2.79a88.49,88.49,0,0,1,8.84-4.85,45.22,45.22,0,0,0-9.88,2.81,43.84,43.84,0,0,0-4.71,2.21,37.08,37.08,0,0,0-4.48,2.78,29.32,29.32,0,0,0-7.58,7.72,21.56,21.56,0,0,0-3.55,10.66,25.18,25.18,0,0,0,2,10.93,22.56,22.56,0,0,0,2.75,4.89,25.44,25.44,0,0,0,3.81,4c2.71,2.27,5.32,4.1,7.63,6.41a56.49,56.49,0,0,1,6.37,7.73,30.06,30.06,0,0,0-4.23-9.48A35.58,35.58,0,0,0,59.2,97.05Z"/><path class="cls-2" d="M54.83,53.65A82.27,82.27,0,0,1,66.05,49c1.92-.66,3.86-1.26,5.82-1.78,1.29-.34,2.64-.66,3.95-.92l5.91,15.09L80.22,44.26a21.22,21.22,0,0,1,1.09-9.63,13.94,13.94,0,0,1,2.4-4c.29-.34.59-.65.91-1,.25,3,.49,6,.78,8.91l.27,2.88,2.25-1.56a6.1,6.1,0,0,0,1.44-1.45,14.14,14.14,0,0,0,.93-1.4c.56-.93,1-1.86,1.49-2.8s1-2.18,1.45-3.29a18.34,18.34,0,0,1,1,5.37A20.41,20.41,0,0,1,94,40.42a16.94,16.94,0,0,1-1.19,4,17.31,17.31,0,0,0,1.81-3.87,19.1,19.1,0,0,0,.87-4.25,18.58,18.58,0,0,0-1.31-8.69l-.87-2.14L92.2,27.67c-.9,1.77-1.86,3.55-2.86,5.24q-.34.6-.72,1.17c-.05-2.79-.12-5.57-.17-8.36l0-3-2.8,1.15c-.38.15-.57.25-.84.38l-.71.39a14.27,14.27,0,0,0-1.31.88,17.74,17.74,0,0,0-2.32,2.09A18.69,18.69,0,0,0,77,32.85a22.65,22.65,0,0,0-1.82,8.47c-1.58.29-3.07.63-4.61,1q-3.14.8-6.2,1.83a87.29,87.29,0,0,0-11.85,5.11,71.53,71.53,0,0,0-10.89,7A66.81,66.81,0,0,0,32.2,65l-.14.17,0,.06a40.45,40.45,0,0,0-7.79,15.18A30.88,30.88,0,0,0,24.6,98a33.62,33.62,0,0,0,9.67,14.55A39.69,39.69,0,0,0,49,121.07a67.65,67.65,0,0,1-12.55-10.75,38.54,38.54,0,0,1-8.08-13.6,34.14,34.14,0,0,1-1.12-15.66,53.06,53.06,0,0,1,1.44-6.46c-.12.77-.22,1.53-.28,2.3a30.84,30.84,0,0,0,1.49,11.76A38.26,38.26,0,0,0,35.32,99,51.91,51.91,0,0,0,39,103.37c1.31,1.39,2.69,2.7,4.11,4-1.23-1.45-2.4-2.93-3.48-4.47a51,51,0,0,1-3-4.71A38.21,38.21,0,0,1,32.43,88a27.94,27.94,0,0,1-.55-10.68,26.32,26.32,0,0,1,1.25-5.13,24.7,24.7,0,0,1,1-2.42c.19-.39.39-.77.6-1.13s.36-.61.52-.84a71.72,71.72,0,0,1,9.16-7.81A85.05,85.05,0,0,1,54.83,53.65Z"/><path class="cls-1" d="M723.9,56.85a8.09,8.09,0,1,1-8-7.87A7.93,7.93,0,0,1,723.9,56.85Zm-14.16,0a6.13,6.13,0,0,0,6.14,6.29,6,6,0,0,0,6-6.24,6.07,6.07,0,1,0-12.14,0Zm4.84,4.08h-1.82V53.06a20.78,20.78,0,0,1,3-.24,4.19,4.19,0,0,1,2.68.62,2,2,0,0,1,.82,1.68A2,2,0,0,1,717.66,57v.09c.76.24,1.15.87,1.39,1.92a7.16,7.16,0,0,0,.57,1.92h-1.91a5.84,5.84,0,0,1-.63-1.92c-.14-.81-.62-1.2-1.63-1.2h-.87Zm0-4.41h.87c1,0,1.82-.34,1.82-1.16s-.53-1.2-1.68-1.2a4.27,4.27,0,0,0-1,.1Z"/></svg>